<svg width="247" height="159" viewBox="0 0 247 159" fill="none" xmlns="http://www.w3.org/2000/svg">
<path d="M133.196 50.0606C131.326 53.3878 121.847 59.1819 111.246 59.2392C111.246 59.2392 124.716 57.1167 130.64 49.3722C129.954 49.2001 129.33 49.028 128.644 48.7985C120.912 46.3891 116.422 45.127 110.872 44.4386C104.325 51.2079 94.5968 51.7242 94.5968 51.7242C103.701 49.3148 107.38 45.5286 108.128 44.0944C94.9086 42.6029 87.8621 44.496 87.8621 44.496C87.8621 44.496 99.2113 40.595 117.046 43.406C114.489 38.874 104.2 35.2026 104.2 35.2026C113.179 35.7762 118.355 40.5377 120.974 44.2091C123.656 44.8402 125.215 45.3565 128.894 46.2743C131.263 46.9054 133.134 47.3069 135.254 47.6512C134.194 44.6107 129.954 37.8988 124.342 33.4816C124.342 33.4816 132.573 35.4894 138.684 48.3969C155.957 50.4621 161.07 42.5455 162.318 35.7762C162.816 31.99 161.881 27.917 159.699 23.9587C157.267 19.4841 153.4 15.411 149.285 12.1985C145.044 8.92856 133.134 0.839844 115.736 0.839844C87.488 0.839844 64.6026 21.8361 64.6026 47.7085C64.6026 63.1976 72.8339 76.9656 85.4925 85.5132C94.2226 91.5368 105.135 95.0935 116.983 95.0935C126.586 95.0935 135.566 92.7415 143.298 88.6684C143.361 88.6111 146.666 87.0621 146.541 83.5628C146.479 80.3502 143.735 77.7687 140.243 77.7687C139.058 77.7687 137.998 78.0556 137.063 78.5145C132.136 81.0386 126.524 82.6449 120.538 83.2186C97.0288 85.3985 76.1388 70.0242 73.8316 48.8559C71.5243 27.6875 88.7351 8.8712 112.182 6.63389C138.434 4.16712 153.525 23.2129 155.957 29.0069C156.892 31.1869 157.578 34.0552 157.329 36.4646C156.83 42.0866 152.59 41.7424 151.467 41.6276C143.735 40.8245 140.929 32.7932 119.166 27.0565C90.4812 19.5414 78.6955 44.4386 78.6955 44.4386C78.6955 44.4386 89.9823 65.9512 121.91 65.2054C153.837 64.4596 161.943 45.758 161.943 45.758C161.943 45.758 163.378 43.8076 164.001 40.5377C158.95 51.4947 146.666 53.3305 133.196 50.0606Z" fill="#FFFBF3"/>
<path d="M133.196 50.0606C131.325 53.3878 121.847 59.1819 111.246 59.2392C111.246 59.2392 124.715 57.1167 130.639 49.3722C129.953 49.2001 129.33 49.028 128.644 48.7985C120.911 46.3891 116.422 45.127 110.872 44.4386C104.324 51.2079 94.5963 51.7242 94.5963 51.7242C103.701 49.3148 107.38 45.5286 108.128 44.0944C94.9081 42.6029 87.8616 44.496 87.8616 44.496C87.8616 44.496 99.2108 40.595 117.045 43.406C114.489 38.874 104.199 35.2026 104.199 35.2026C113.179 35.7762 118.355 40.5377 120.974 44.2091C123.655 44.8402 125.214 45.3565 128.893 46.2743C131.263 46.9054 133.134 47.3069 135.254 47.6512C134.194 44.6107 129.953 37.8988 124.341 33.4816C124.341 33.4816 132.572 35.4894 138.683 48.3969C155.957 50.4621 161.07 42.5455 162.317 35.7762C162.816 31.99 161.881 27.917 159.698 23.9587C157.266 19.4841 153.4 15.411 149.284 12.1985C145.044 8.92856 133.134 0.839844 115.736 0.839844C115.611 0.839844 115.486 0.839844 115.362 0.839844V6.46179C139.681 5.71602 153.712 23.4424 156.081 29.0069C157.017 31.1869 157.703 34.0552 157.453 36.4646C156.954 42.0866 152.714 41.7424 151.592 41.6276C143.859 40.8245 140.991 32.7932 119.29 27.0565C90.4807 19.5414 78.695 44.4386 78.695 44.4386C78.695 44.4386 89.9818 65.9512 121.909 65.2054C153.836 64.4596 161.943 45.758 161.943 45.758C161.943 45.758 163.377 43.8076 164.001 40.5377C158.95 51.4947 146.665 53.3305 133.196 50.0606Z" fill="#FFFBF3"/>
<path d="M16.7743 153.034C7.79475 153.034 0 146.781 0 137.43V137.315C0 128.653 6.9841 121.711 16.2131 121.711C25.8162 121.711 31.8649 128.653 31.8649 137.2C31.8649 137.889 31.0543 138.52 30.2436 138.52H3.42969C4.05327 145.977 10.102 150.337 16.8367 150.337C21.7629 150.337 25.1303 148.559 27.874 146.207C28.1235 145.977 28.4976 145.805 28.9341 145.805C29.8071 145.805 30.5554 146.379 30.5554 147.125C30.5554 147.412 30.4307 147.756 29.9942 148.1C26.7516 151.083 22.9477 153.034 16.7743 153.034ZM28.3729 135.996C27.9364 129.972 23.9455 124.35 16.1507 124.35C9.3537 124.35 4.17799 129.341 3.55441 135.996H28.3729ZM36.2924 137.487V137.372C36.2924 128.997 43.5882 121.711 52.8796 121.711C58.4918 121.711 62.1709 123.949 65.1017 126.473C65.3512 126.702 65.5383 127.104 65.5383 127.505C65.5383 128.308 64.8523 128.94 63.9169 128.94C63.5428 128.94 63.1063 128.825 62.8569 128.595C60.2378 126.301 57.1823 124.35 52.7549 124.35C45.3343 124.35 39.5973 130.029 39.5973 137.2V137.315C39.5973 144.543 45.5213 150.28 53.0043 150.28C57.2446 150.28 60.612 148.387 63.231 145.977C63.4804 145.748 63.7922 145.519 64.2287 145.519C64.977 145.519 65.7253 146.207 65.7253 146.895C65.7253 147.182 65.6006 147.526 65.3512 147.756C62.1086 150.796 58.3671 152.919 52.8172 152.919C43.4635 153.034 36.2924 145.863 36.2924 137.487ZM69.5292 137.487V137.372C69.5292 128.997 76.5756 121.711 86.3035 121.711C95.9689 121.711 102.953 128.882 102.953 137.258V137.372C102.953 145.748 95.8442 153.034 86.1787 153.034C76.5133 153.034 69.5292 145.863 69.5292 137.487ZM99.5857 137.487V137.372C99.5857 130.144 93.7241 124.408 86.1787 124.408C78.4464 124.408 72.8965 130.202 72.8965 137.258V137.372C72.8965 144.601 78.7581 150.337 86.3035 150.337C94.0359 150.337 99.5857 144.543 99.5857 137.487ZM109.376 123.662C109.376 122.801 109.999 122.17 110.935 122.17C111.808 122.17 112.556 122.744 112.556 123.662V129.112C115.362 125.153 119.54 121.711 125.963 121.711C133.82 121.711 141.802 127.505 141.802 137.258V137.372C141.802 147.125 133.82 153.034 125.963 153.034C119.478 153.034 115.238 149.649 112.556 145.863V157.508C112.556 158.369 111.933 159 110.997 159C110.124 159 109.376 158.426 109.376 157.508V123.662ZM138.372 137.487V137.372C138.372 129.513 132.448 124.465 125.589 124.465C118.854 124.465 112.307 129.685 112.307 137.315V137.43C112.307 145.117 118.792 150.28 125.589 150.28C132.698 150.28 138.372 145.519 138.372 137.487ZM145.606 143.625V143.511C145.606 137.258 151.405 133.758 159.824 133.758C164.376 133.758 167.494 134.275 170.611 135.078V133.758C170.611 127.735 166.621 124.637 159.886 124.637C156.331 124.637 153.338 125.44 150.657 126.645C150.407 126.76 150.158 126.817 149.971 126.817C149.223 126.817 148.474 126.186 148.474 125.44C148.474 124.752 149.036 124.293 149.347 124.178C152.652 122.859 155.957 121.941 160.073 121.941C164.438 121.941 167.992 123.088 170.362 125.211C172.545 127.219 173.667 129.972 173.667 133.644V151.083C173.667 152.001 173.043 152.575 172.17 152.575C171.297 152.575 170.611 152.001 170.611 151.083V147.354C168.367 150.223 164.376 153.034 158.202 153.034C152.154 153.034 145.606 149.878 145.606 143.625ZM170.736 141.101V137.717C167.992 137.086 164.313 136.34 159.699 136.34C152.777 136.34 148.973 139.151 148.973 143.339V143.453C148.973 147.756 153.463 150.337 158.452 150.337C164.999 150.337 170.736 146.609 170.736 141.101ZM179.84 123.662C179.84 122.859 180.464 122.17 181.337 122.17C182.21 122.17 182.958 122.744 182.958 123.662V130.947C185.764 125.153 191.439 121.941 196.054 121.941C196.989 121.941 197.675 122.629 197.675 123.547C197.675 124.35 197.051 125.096 196.054 125.153C189.132 125.727 182.958 130.488 182.958 140.126V151.14C182.958 152.001 182.335 152.632 181.399 152.632C180.526 152.632 179.84 152.058 179.84 151.14V123.662ZM202.165 110.754C202.165 109.951 202.788 109.263 203.724 109.263C204.597 109.263 205.345 109.894 205.345 110.754V141.618L225.299 122.572C225.611 122.285 225.923 122.17 226.36 122.17C227.233 122.17 227.856 122.744 227.856 123.547C227.856 123.949 227.731 124.178 227.357 124.522L215.322 135.651L228.106 150.165C228.417 150.509 228.542 150.796 228.542 151.198C228.542 152.001 227.918 152.517 226.983 152.517C226.422 152.517 226.11 152.345 225.674 151.886L213.202 137.659L205.283 145.002V151.026C205.283 151.944 204.659 152.517 203.724 152.517C202.851 152.517 202.102 151.944 202.102 151.026V110.754H202.165ZM233.718 143.396C234.092 142.593 234.591 141.962 235.214 141.388C235.838 140.814 236.586 140.356 237.397 140.011C238.208 139.724 239.143 139.495 240.078 139.495C241.014 139.495 241.887 139.667 242.76 140.011C243.633 140.356 244.319 140.757 244.942 141.388C245.566 141.962 246.065 142.593 246.439 143.396C246.813 144.142 247 145.002 247 145.863C247 146.781 246.813 147.641 246.439 148.387C246.065 149.19 245.566 149.821 244.942 150.395C244.319 150.968 243.57 151.427 242.76 151.714C241.949 152.001 241.014 152.173 240.078 152.173C239.143 152.173 238.208 152.001 237.397 151.714C236.524 151.427 235.838 150.968 235.214 150.395C234.591 149.821 234.092 149.133 233.718 148.387C233.344 147.641 233.157 146.781 233.157 145.863C233.157 145.002 233.344 144.142 233.718 143.396ZM234.84 148.043C235.152 148.674 235.526 149.247 236.025 149.764C236.524 150.223 237.147 150.624 237.833 150.911C238.519 151.198 239.268 151.313 240.078 151.313C240.889 151.313 241.637 151.198 242.323 150.911C243.009 150.624 243.633 150.223 244.132 149.764C244.63 149.247 245.067 148.674 245.316 148.043C245.628 147.354 245.753 146.666 245.753 145.863C245.753 145.117 245.628 144.371 245.316 143.74C245.005 143.109 244.63 142.535 244.132 142.019C243.633 141.56 243.009 141.159 242.323 140.872C241.637 140.585 240.889 140.47 240.078 140.47C239.268 140.47 238.519 140.585 237.833 140.872C237.147 141.159 236.524 141.503 236.025 142.019C235.526 142.478 235.152 143.052 234.84 143.74C234.528 144.371 234.404 145.117 234.404 145.863C234.404 146.666 234.591 147.354 234.84 148.043ZM240.515 142.191C241.45 142.191 242.198 142.363 242.635 142.708C243.071 143.052 243.321 143.568 243.321 144.314C243.321 145.002 243.134 145.461 242.697 145.805C242.261 146.092 241.762 146.322 241.201 146.379L243.508 149.649H242.136L239.954 146.494H238.644V149.649H237.397V142.249H240.515V142.191ZM240.016 145.461C240.265 145.461 240.577 145.461 240.827 145.461C241.076 145.461 241.325 145.404 241.513 145.346C241.7 145.289 241.887 145.117 242.011 144.945C242.136 144.773 242.198 144.543 242.198 144.256C242.198 143.97 242.136 143.798 242.074 143.625C241.949 143.453 241.824 143.396 241.637 143.281C241.45 143.224 241.263 143.167 241.076 143.109C240.889 143.109 240.639 143.109 240.452 143.109H238.769V145.461H240.016Z" fill="#FFFBF3"/>
</svg>
